<svg xmlns="http://www.w3.org/2000/svg" viewBox="0 0 1500 1939" width="1500" height="1939">
	<defs>
		<linearGradient id="grd1" gradientUnits="userSpaceOnUse"  x1="634.415" y1="135.191" x2="944.08" y2="1282.873">
			<stop offset="0" stop-color="#2d3cff" stop-opacity="0" />
			<stop offset="1" stop-color="#19194b" stop-opacity="0.55" />
		</linearGradient>
		<radialGradient id="grd2" gradientUnits="userSpaceOnUse"  cx="773.061" cy="268.069" r="130.424">
			<stop offset="0" stop-color="#ff8366"  />
			<stop offset="1" stop-color="#ff3000"  />
		</radialGradient>
		<radialGradient id="grd3" gradientUnits="userSpaceOnUse"  cx="355.21" cy="512.552" r="112.435">
			<stop offset="0" stop-color="#ff8366"  />
			<stop offset="1" stop-color="#ff3000"  />
		</radialGradient>
		<linearGradient id="grd4" gradientUnits="userSpaceOnUse"  x1="859.735" y1="1277.86" x2="859.735" y2="247.775">
			<stop offset="0" stop-color="#dc0a0a"  />
			<stop offset="1" stop-color="#ff00d2"  />
		</linearGradient>
	</defs>
	<style>
		tspan { white-space:pre }
		.shp0 { fill: #2d3cff } 
		.shp1 { fill: url(#grd1) } 
		.shp2 { fill: none } 
		.shp3 { fill: url(#grd2) } 
		.shp4 { fill: #ff00d2 } 
		.shp5 { fill: url(#grd3) } 
		.shp6 { fill: url(#grd4) } 
	</style>
	<path id="Layer" fill-rule="evenodd" class="shp0" d="M1038.5 1808.69C1074.03 1808.69 1097.89 1835.69 1097.89 1870.53C1097.89 1905.36 1074.03 1932.35 1038.48 1932.35C1002.77 1932.35 978.91 1905.36 978.91 1870.53C978.91 1835.69 1002.77 1808.69 1038.48 1808.69L1038.5 1808.69ZM1067.76 1870.53C1067.76 1852.23 1060.44 1829.25 1038.48 1829.25C1016.71 1829.25 1009.05 1852.41 1009.05 1870.53C1009.05 1888.81 1016.36 1911.63 1038.48 1911.63C1060.44 1911.63 1067.76 1888.81 1067.76 1870.53ZM1175.03 1911.7C1177.73 1911.6 1180.43 1911.42 1183.12 1911.17C1185.81 1910.92 1188.49 1910.6 1191.16 1910.22C1193.84 1909.83 1196.5 1909.37 1199.15 1908.84L1191.83 1929.05L1101.08 1929.05C1104.77 1925.22 1108.4 1921.34 1111.97 1917.4C1115.54 1913.46 1119.05 1909.46 1122.5 1905.41C1125.94 1901.36 1129.32 1897.25 1132.63 1893.09C1135.94 1888.93 1139.19 1884.72 1142.36 1880.45C1143.88 1878.6 1145.35 1876.71 1146.79 1874.79C1148.22 1872.87 1149.62 1870.93 1150.97 1868.95C1152.32 1866.97 1153.64 1864.97 1154.9 1862.93C1156.17 1860.9 1157.4 1858.84 1158.58 1856.76C1160.88 1852.79 1162.2 1848.31 1162.39 1843.7C1162.39 1833.08 1153.15 1829.07 1143.92 1829.07C1141.15 1829.1 1138.39 1829.33 1135.66 1829.77C1132.92 1830.21 1130.22 1830.85 1127.59 1831.69C1124.95 1832.53 1122.37 1833.57 1119.89 1834.79C1117.41 1836.02 1115.02 1837.43 1112.74 1839.01L1116.92 1816.18C1119.47 1814.97 1122.09 1813.9 1124.75 1812.98C1127.42 1812.06 1130.14 1811.29 1132.89 1810.68C1135.65 1810.06 1138.43 1809.6 1141.24 1809.3C1144.04 1808.99 1146.86 1808.85 1149.68 1808.86C1169.36 1808.86 1189.39 1818.1 1189.39 1840.57C1189.39 1863.38 1161.52 1894.39 1147.06 1911.11C1153.68 1911.46 1160.3 1911.81 1166.92 1911.81C1169.63 1911.84 1172.33 1911.81 1175.03 1911.7ZM1301.95 1891.77C1301.95 1922.43 1269.38 1932.35 1244.11 1932.35C1242.26 1932.36 1240.42 1932.32 1238.58 1932.23C1236.74 1932.15 1234.9 1932.01 1233.07 1931.82C1231.23 1931.63 1229.41 1931.39 1227.59 1931.1C1225.77 1930.82 1223.95 1930.48 1222.15 1930.09L1212.39 1907.79C1215.01 1908.54 1217.65 1909.19 1220.31 1909.76C1222.98 1910.32 1225.66 1910.79 1228.35 1911.17C1231.05 1911.55 1233.75 1911.84 1236.47 1912.03C1239.18 1912.22 1241.9 1912.32 1244.62 1912.32C1257.7 1912.32 1274.08 1908.32 1274.08 1892.12C1274.08 1878.19 1259.61 1875.04 1248.47 1875.04C1247.23 1875.03 1245.99 1875.04 1244.76 1875.07C1243.52 1875.1 1242.28 1875.15 1241.05 1875.23C1239.81 1875.3 1238.58 1875.39 1237.34 1875.51C1236.11 1875.63 1234.88 1875.76 1233.65 1875.92L1233.65 1855.55C1236.09 1855.71 1238.53 1855.71 1240.97 1855.71C1250.73 1855.71 1266.92 1855.71 1266.92 1842.14C1266.92 1831.69 1257 1829.25 1248.45 1829.25C1246.22 1829.25 1243.98 1829.38 1241.76 1829.63C1239.53 1829.88 1237.33 1830.26 1235.15 1830.76C1232.96 1831.26 1230.81 1831.87 1228.7 1832.61C1226.59 1833.35 1224.52 1834.2 1222.5 1835.17L1225.98 1813.75C1228.16 1812.97 1230.37 1812.28 1232.6 1811.69C1234.84 1811.1 1237.09 1810.61 1239.37 1810.22C1241.65 1809.82 1243.94 1809.52 1246.24 1809.33C1248.55 1809.13 1250.86 1809.04 1253.17 1809.04C1271.8 1809.04 1293.41 1817.06 1293.41 1838.99C1293.54 1841.56 1293.24 1844.14 1292.54 1846.61C1291.84 1849.09 1290.74 1851.44 1289.29 1853.56C1287.84 1855.69 1286.05 1857.56 1283.99 1859.11C1281.93 1860.66 1279.64 1861.87 1277.2 1862.68C1292.71 1866.51 1301.94 1875.23 1301.94 1891.78L1301.94 1891.77L1301.95 1891.77ZM249.7 1812.34L249.7 1831.86C247.31 1831.43 244.92 1831.06 242.52 1830.75C240.12 1830.44 237.71 1830.19 235.3 1830.01C232.89 1829.82 230.47 1829.69 228.05 1829.62C225.63 1829.55 223.21 1829.55 220.79 1829.6C217.47 1829.6 213.98 1829.6 210.68 1829.76L210.68 1858.15L243.94 1858.15L243.94 1875.57L210.67 1875.57L210.67 1929.05L183.67 1929.05L183.67 1812.34L249.7 1812.34ZM434.92 1812.18L483.71 1929.05L453.91 1929.05L441.03 1896.13L399.58 1896.13L386.85 1929.05L333 1929.05L293.09 1875.76L293.09 1929.05L266.27 1929.05L266.27 1812.18C268.65 1811.87 271.04 1811.61 273.43 1811.4C275.82 1811.18 278.22 1811 280.62 1810.87C283.01 1810.74 285.41 1810.65 287.81 1810.61C290.21 1810.56 292.61 1810.56 295.02 1810.6C298.26 1810.4 301.51 1810.42 304.75 1810.64C307.99 1810.86 311.21 1811.28 314.4 1811.91C317.59 1812.55 320.73 1813.38 323.81 1814.42C326.89 1815.45 329.9 1816.68 332.82 1818.1C335.27 1819.51 337.53 1821.23 339.54 1823.21C341.55 1825.2 343.3 1827.43 344.74 1829.86C346.19 1832.29 347.31 1834.9 348.09 1837.61C348.87 1840.33 349.3 1843.13 349.36 1845.96C349.62 1849.56 349.19 1853.18 348.11 1856.62C347.02 1860.07 345.29 1863.28 343.02 1866.08C340.74 1868.89 337.96 1871.24 334.81 1873.02C331.67 1874.79 328.21 1875.96 324.64 1876.45L362.52 1924.7L408.98 1812.18L434.92 1812.18ZM298.68 1864.95C298.68 1864.95 298.68 1864.95 298.67 1864.95C298.67 1864.95 298.67 1864.95 298.67 1864.95L298.68 1864.95ZM298.67 1864.95C310.35 1864.95 321.32 1860.24 321.32 1846.84C321.32 1833.6 310.33 1828.89 298.67 1828.89C296.76 1828.89 295.02 1828.89 293.09 1829.07L293.09 1864.77C295.01 1864.77 296.75 1864.95 298.67 1864.95ZM433.53 1877.32L419.94 1843L406.71 1877.32L433.53 1877.32ZM969.41 1908.84L962.09 1929.05L871.33 1929.05C875.03 1925.22 878.66 1921.34 882.23 1917.4C885.8 1913.46 889.31 1909.46 892.75 1905.41C896.2 1901.36 899.57 1897.25 902.89 1893.09C906.2 1888.93 909.44 1884.72 912.62 1880.45C918.68 1873.03 924.11 1865.11 928.82 1856.76C931.14 1852.79 932.45 1848.31 932.65 1843.7C932.65 1833.08 923.41 1829.07 914.18 1829.07C911.41 1829.1 908.65 1829.33 905.92 1829.77C903.18 1830.21 900.48 1830.85 897.85 1831.69C895.21 1832.53 892.63 1833.56 890.15 1834.78C887.67 1836.01 885.28 1837.41 883 1838.99L887.18 1816.18C889.73 1814.97 892.34 1813.9 895.01 1812.98C897.68 1812.06 900.4 1811.29 903.15 1810.68C905.9 1810.06 908.69 1809.6 911.49 1809.3C914.3 1808.99 917.12 1808.85 919.94 1808.86C939.62 1808.86 959.65 1818.1 959.65 1840.57C959.65 1863.38 931.77 1894.39 917.32 1911.11C923.94 1911.46 930.56 1911.81 937.17 1911.81C948 1911.94 958.8 1910.96 969.41 1908.84ZM826.45 1907.28L817.58 1929.05L745.45 1929.05L745.45 1812.34L813.56 1812.34L813.56 1831.86C811.18 1831.38 808.8 1830.98 806.4 1830.65C804 1830.32 801.59 1830.06 799.17 1829.87C796.76 1829.68 794.34 1829.56 791.92 1829.52C789.49 1829.47 787.07 1829.5 784.65 1829.6C780.47 1829.6 776.29 1829.6 772.27 1829.76L772.27 1858.15L808.7 1858.15L808.7 1875.57L772.27 1875.57L772.27 1911.28C777.15 1911.63 782.05 1911.81 786.91 1911.81C800.24 1911.96 813.52 1910.43 826.45 1907.28ZM702.75 1911.7C706 1911.28 709.22 1910.61 712.37 1909.68C715.52 1908.74 718.58 1907.56 721.54 1906.14C724.5 1904.71 727.34 1903.05 730.03 1901.17L719.39 1926.79C716.93 1927.66 714.42 1928.43 711.88 1929.08C709.35 1929.73 706.79 1930.26 704.2 1930.69C701.62 1931.11 699.02 1931.42 696.41 1931.61C693.8 1931.8 691.18 1931.88 688.56 1931.83C651.11 1931.83 622.36 1909.88 622.36 1870.7C622.36 1832.2 653.55 1809.21 689.95 1809.21C692.67 1809.14 695.39 1809.21 698.1 1809.42C700.81 1809.63 703.51 1809.97 706.19 1810.46C708.86 1810.94 711.51 1811.56 714.13 1812.31C716.74 1813.06 719.31 1813.95 721.83 1814.96L721.83 1837.43C719.6 1836.03 717.26 1834.81 714.84 1833.77C712.42 1832.73 709.92 1831.88 707.37 1831.23C704.81 1830.58 702.21 1830.13 699.59 1829.89C696.97 1829.64 694.33 1829.6 691.7 1829.76C686.38 1829.66 681.1 1830.66 676.18 1832.69C671.26 1834.72 666.82 1837.74 663.12 1841.56C659.43 1845.39 656.56 1849.94 654.71 1854.92C652.85 1859.91 652.04 1865.22 652.33 1870.53C652.33 1895.78 667.32 1912.16 692.92 1912.16C696.21 1912.27 699.49 1912.12 702.75 1911.7ZM580.58 1812.34L604.11 1812.34L604.11 1932.88C601.04 1932.48 598.01 1931.78 595.08 1930.81C592.14 1929.83 589.31 1928.57 586.61 1927.05C583.91 1925.53 581.37 1923.76 579.01 1921.76C576.65 1919.75 574.49 1917.53 572.56 1915.11L520.3 1852.23L520.3 1929.05L496.79 1929.05L496.79 1812.34L521.7 1812.34L580.58 1883.24L580.58 1812.34ZM321.24 1755.72L321.24 1581.95C324.9 1581.52 328.57 1581.14 332.25 1580.83C335.92 1580.51 339.6 1580.26 343.28 1580.07C346.96 1579.87 350.65 1579.74 354.33 1579.67C358.02 1579.6 361.71 1579.58 365.39 1579.63C390.65 1579.63 410.3 1583.34 422.58 1590.75C426.82 1593 430.69 1595.9 434.05 1599.34C437.4 1602.78 440.21 1606.72 442.35 1611.02C444.49 1615.32 445.96 1619.92 446.68 1624.67C447.41 1629.42 447.4 1634.26 446.64 1639C445.88 1643.75 444.4 1648.35 442.23 1652.64C440.06 1656.93 437.24 1660.85 433.86 1664.27C430.49 1667.7 426.6 1670.57 422.34 1672.8C418.08 1675.02 413.49 1676.57 408.76 1677.39L473.3 1755.72L424.27 1755.72L361.18 1676.37L361.18 1755.72L321.24 1755.72ZM361.18 1659.63C361.98 1659.75 362.79 1659.85 363.59 1659.93C364.4 1660.02 365.2 1660.09 366.01 1660.14C366.82 1660.19 367.63 1660.23 368.44 1660.26C369.24 1660.28 370.05 1660.29 370.86 1660.28C393.32 1660.28 409.36 1650.56 409.36 1632.47C409.36 1613.4 393.32 1606.86 370.86 1606.86C370.05 1606.85 369.25 1606.86 368.44 1606.88C367.63 1606.91 366.82 1606.94 366.01 1606.99C365.21 1607.04 364.4 1607.1 363.59 1607.17C362.79 1607.25 361.98 1607.33 361.18 1607.43L361.18 1659.63ZM829.85 1669.77L829.85 1737.83C825.35 1741.83 820.49 1745.41 815.33 1748.5C810.17 1751.6 804.73 1754.21 799.08 1756.3C793.44 1758.38 787.61 1759.94 781.67 1760.94C775.73 1761.94 769.72 1762.38 763.7 1762.26C756.93 1762.31 750.17 1761.73 743.51 1760.53C736.85 1759.33 730.32 1757.52 723.99 1755.12C717.67 1752.72 711.58 1749.74 705.8 1746.22C700.02 1742.7 694.58 1738.65 689.55 1734.13C672.36 1718.58 663.64 1697.26 663.64 1667.56C663.5 1661.5 663.98 1655.45 665.07 1649.49C666.17 1643.54 667.87 1637.71 670.16 1632.1C672.45 1626.49 675.3 1621.13 678.68 1616.11C682.06 1611.08 685.95 1606.42 690.29 1602.19C708.17 1584.69 733.08 1577.29 760.59 1577.29C765.24 1577.11 769.9 1577.19 774.54 1577.53C779.18 1577.87 783.8 1578.46 788.37 1579.31C792.95 1580.16 797.47 1581.27 801.93 1582.62C806.38 1583.97 810.75 1585.57 815.03 1587.4L815.03 1618.52C811.39 1616.36 807.6 1614.46 803.7 1612.82C799.79 1611.19 795.78 1609.83 791.68 1608.76C787.59 1607.68 783.42 1606.9 779.22 1606.41C775.01 1605.91 770.78 1605.71 766.55 1605.81C762.39 1605.64 758.22 1605.91 754.12 1606.61C750.02 1607.31 746.01 1608.44 742.14 1609.97C738.27 1611.51 734.58 1613.45 731.12 1615.76C727.66 1618.07 724.45 1620.74 721.55 1623.72C715.9 1629.8 711.43 1636.89 708.39 1644.62C705.35 1652.35 703.79 1660.57 703.77 1668.88C703.76 1677.18 705.3 1685.41 708.32 1693.15C711.34 1700.89 715.78 1707.99 721.41 1714.09C724.29 1717 727.46 1719.6 730.88 1721.86C734.3 1724.11 737.94 1726 741.75 1727.51C745.56 1729.01 749.51 1730.12 753.55 1730.8C757.58 1731.49 761.68 1731.76 765.77 1731.6C768 1731.6 770.23 1731.48 772.44 1731.25C774.66 1731.02 776.86 1730.67 779.04 1730.21C781.22 1729.75 783.38 1729.18 785.5 1728.5C787.62 1727.82 789.7 1727.03 791.74 1726.13L791.74 1669.77L829.85 1669.77ZM963.17 1748.27C958.55 1750.19 953.83 1751.85 949.02 1753.25C944.22 1754.64 939.34 1755.77 934.42 1756.63C929.49 1757.49 924.52 1758.07 919.52 1758.38C914.53 1758.69 909.53 1758.72 904.53 1758.48C889.64 1758.69 874.74 1757.99 859.92 1756.4L859.92 1580.35C877.74 1578.76 892.71 1579.18 904.79 1579.18C928.83 1579.18 951.02 1583.16 963.61 1590.65C966.37 1592.42 968.89 1594.56 971.08 1597C973.28 1599.44 975.15 1602.16 976.62 1605.09C978.1 1608.03 979.18 1611.15 979.83 1614.37C980.49 1617.59 980.7 1620.88 980.48 1624.15C980.24 1627.14 979.63 1630.09 978.68 1632.93C977.73 1635.78 976.44 1638.5 974.84 1641.03C973.24 1643.57 971.34 1645.9 969.18 1647.98C967.02 1650.07 964.62 1651.88 962.03 1653.39C961.77 1653.55 961.5 1653.72 961.24 1653.88C960.97 1654.04 960.7 1654.19 960.44 1654.35C960.17 1654.51 959.9 1654.66 959.63 1654.82C959.36 1654.97 959.09 1655.12 958.82 1655.27C958.56 1655.39 958.3 1655.51 958.04 1655.63C957.78 1655.74 957.52 1655.85 957.25 1655.96C956.98 1656.06 956.72 1656.16 956.45 1656.26C956.18 1656.35 955.91 1656.44 955.64 1656.53C957.62 1656.96 959.59 1657.48 961.52 1658.11C963.46 1658.73 965.36 1659.45 967.22 1660.26C969.09 1661.07 970.91 1661.97 972.68 1662.96C974.46 1663.95 976.18 1665.03 977.85 1666.19C980.24 1668 982.43 1670.05 984.4 1672.31C986.37 1674.57 988.09 1677.02 989.55 1679.64C991.01 1682.26 992.19 1685.02 993.07 1687.88C993.96 1690.74 994.54 1693.69 994.82 1696.67C994.84 1697.02 994.85 1697.36 994.86 1697.71C994.88 1698.05 994.89 1698.4 994.9 1698.75C994.9 1699.09 994.91 1699.44 994.92 1699.78C994.92 1700.13 994.92 1700.48 994.92 1700.82C994.92 1725.51 983.41 1738.65 963.18 1748.27L963.17 1748.27ZM897.97 1604.07L897.97 1647.6L910.36 1647.6C930.56 1647.77 943.85 1640.53 943.85 1625.85C943.85 1609.4 928.67 1604.07 908.45 1604.07L897.97 1604.07ZM897.97 1673.3L897.97 1732.8C901.08 1732.97 910.8 1733.06 915.83 1733.06C945.02 1733.06 957.05 1721.7 957.05 1702.93C957.05 1682.98 939.83 1673.04 914.42 1673.04C913.05 1673.04 911.68 1673.04 910.31 1673.05C908.94 1673.06 907.57 1673.07 906.2 1673.09C904.82 1673.11 903.45 1673.14 902.08 1673.18C900.71 1673.21 899.34 1673.25 897.97 1673.3ZM560.15 1762.26C513.33 1762.26 482.47 1736.13 482.47 1684.84L482.47 1581.95L523.05 1581.95L523.05 1683.85C523.05 1712.23 537.23 1729.12 560.64 1729.12C584.05 1729.12 598.23 1712.73 598.23 1685.08L598.23 1581.95L638.79 1581.95L638.79 1683.6C638.79 1736.36 606.95 1762.26 560.15 1762.26ZM1057.94 1686.84L990.58 1581.95L1034.91 1581.95L1077.48 1650.29L1120.06 1581.95L1164.38 1581.95L1097.02 1686.84L1097.02 1755.72L1057.94 1755.72L1057.94 1686.84ZM300.44 1528.05C269.18 1528.05 251.24 1510.18 251.24 1479L251.24 1414.02L277.77 1414.02L277.77 1478.38C277.77 1495.79 286.36 1506.16 300.76 1506.16C315.15 1506.16 323.74 1496.06 323.74 1479.15L323.74 1414.02L350.26 1414.02L350.26 1478.21C350.26 1509.88 332.11 1528.05 300.44 1528.05ZM716.47 1414.02L743 1414.02L743 1478.38C743 1495.79 751.59 1506.16 765.98 1506.16C780.38 1506.16 788.97 1496.06 788.97 1479.15L788.97 1414.02L815.48 1414.02L815.48 1478.21C815.48 1509.88 797.33 1528.05 765.67 1528.05C734.41 1528.05 716.47 1510.18 716.47 1479L716.47 1414.02ZM1485.62 1503.32L1476.68 1525.25L1407.67 1525.25L1407.67 1414L1473.08 1414L1473.08 1433.69L1472.38 1433.54C1470.15 1433.1 1467.9 1432.73 1465.65 1432.42C1463.39 1432.11 1461.13 1431.86 1458.86 1431.68C1456.59 1431.51 1454.31 1431.4 1452.04 1431.35C1449.76 1431.31 1447.49 1431.33 1445.21 1431.42C1441.53 1431.42 1437.73 1431.42 1434.12 1431.56L1434.12 1457.23L1468.47 1457.23L1468.47 1474.81L1434.12 1474.81L1434.12 1507.39C1438.52 1507.69 1442.98 1507.85 1447.36 1507.85C1459.88 1508 1472.36 1506.57 1484.53 1503.6L1485.62 1503.3L1485.62 1503.32ZM1163.73 1525.25L1163.73 1414L1188.08 1414L1188.23 1414.21L1242.79 1479.9L1242.79 1414L1266.12 1414L1266.12 1529.02L1265.42 1528.86C1262.5 1528.47 1259.62 1527.8 1256.82 1526.86C1254.03 1525.93 1251.32 1524.72 1248.76 1523.27C1246.19 1521.82 1243.76 1520.13 1241.52 1518.22C1239.27 1516.31 1237.21 1514.19 1235.36 1511.89L1187.06 1453.78L1187.06 1525.25L1163.73 1525.25ZM1071.83 1527.8C1067.75 1527.22 1063.73 1526.25 1059.84 1524.91C1055.94 1523.56 1052.19 1521.84 1048.62 1519.78C1045.05 1517.72 1041.69 1515.32 1038.58 1512.62C1035.6 1509.91 1032.93 1506.89 1030.61 1503.61C1028.28 1500.33 1026.32 1496.81 1024.75 1493.12C1023.17 1489.42 1022 1485.56 1021.26 1481.61C1020.51 1477.66 1020.19 1473.64 1020.3 1469.63C1020.18 1465.62 1020.5 1461.61 1021.24 1457.68C1021.98 1453.74 1023.15 1449.89 1024.72 1446.21C1026.3 1442.52 1028.26 1439.02 1030.59 1435.76C1032.92 1432.5 1035.6 1429.5 1038.58 1426.82C1045.01 1421.7 1052.26 1417.7 1060.02 1414.99C1067.78 1412.27 1075.94 1410.89 1084.16 1410.89C1092.38 1410.89 1100.54 1412.27 1108.3 1414.99C1116.06 1417.7 1123.31 1421.7 1129.74 1426.82C1132.72 1429.5 1135.4 1432.5 1137.73 1435.76C1140.05 1439.02 1142.02 1442.52 1143.6 1446.21C1145.17 1449.89 1146.34 1453.74 1147.08 1457.68C1147.82 1461.61 1148.14 1465.62 1148.02 1469.63C1148.13 1473.64 1147.81 1477.66 1147.06 1481.61C1146.32 1485.56 1145.15 1489.41 1143.58 1493.11C1142.01 1496.81 1140.04 1500.33 1137.72 1503.61C1135.4 1506.89 1132.73 1509.91 1129.76 1512.62C1117.14 1523.52 1100.82 1529.17 1084.15 1528.37C1080.04 1528.58 1075.91 1528.39 1071.83 1527.8ZM1050.03 1469.79C1050.03 1493.3 1063.44 1508.5 1084.15 1508.5C1104.88 1508.5 1118.27 1493.3 1118.27 1469.79C1118.27 1450.52 1107.73 1431.09 1084.15 1431.09C1060.71 1431.09 1050.03 1451.16 1050.03 1469.79ZM869.94 1525.25L870.02 1524.61L883.56 1414L911.74 1414L911.86 1414.36L940.94 1485.71L970.14 1414L996.5 1414L1010.12 1525.25L983.32 1525.25L983.27 1524.75L975.62 1455.83L945.98 1529.45L945.14 1528.96C942.75 1528.01 940.46 1526.84 938.3 1525.46C936.13 1524.07 934.11 1522.49 932.24 1520.72C930.38 1518.96 928.69 1517.02 927.19 1514.94C925.69 1512.85 924.4 1510.63 923.32 1508.3L901.47 1455.43L893.44 1525.25L869.94 1525.25ZM103.41 1496.86L92.56 1522.98L92.33 1523.07C89.99 1523.89 87.6 1524.61 85.19 1525.23C82.78 1525.85 80.35 1526.36 77.89 1526.76C75.44 1527.16 72.97 1527.46 70.49 1527.65C68.01 1527.84 65.52 1527.92 63.03 1527.89C24.74 1527.89 0 1505.01 0 1469.63C-0.1 1465.56 0.25 1461.5 1.05 1457.51C1.85 1453.53 3.09 1449.64 4.74 1445.93C6.4 1442.22 8.46 1438.7 10.9 1435.45C13.33 1432.19 16.12 1429.21 19.21 1426.57C22.36 1424.01 25.73 1421.72 29.29 1419.75C32.84 1417.77 36.56 1416.11 40.4 1414.79C44.25 1413.47 48.2 1412.49 52.22 1411.86C56.24 1411.23 60.3 1410.96 64.36 1411.05C66.94 1410.98 69.53 1411.05 72.1 1411.25C74.67 1411.45 77.24 1411.78 79.78 1412.24C82.32 1412.69 84.83 1413.28 87.31 1413.99C89.8 1414.7 92.24 1415.54 94.64 1416.5L95 1416.65L95 1439.33L94.11 1438.71C92.02 1437.41 89.84 1436.27 87.58 1435.31C85.32 1434.34 82.98 1433.56 80.6 1432.95C78.22 1432.35 75.79 1431.93 73.35 1431.7C70.9 1431.48 68.44 1431.44 65.98 1431.59C61.05 1431.51 56.15 1432.44 51.59 1434.34C47.03 1436.23 42.91 1439.04 39.48 1442.59C36.05 1446.14 33.39 1450.36 31.65 1454.98C29.92 1459.6 29.16 1464.53 29.41 1469.46C29.41 1493.35 43.86 1508.18 67.14 1508.18C79.52 1508.63 91.68 1505.01 101.83 1497.92L103.41 1496.86ZM399.83 1479.17L399.83 1525.25L373.38 1525.25L373.38 1413.91L373.88 1413.85C383.73 1412.83 393.64 1412.38 403.53 1412.53C416.17 1412.53 438.85 1415.17 448.91 1432.86C449.65 1434.18 450.3 1435.55 450.86 1436.95C451.43 1438.36 451.9 1439.79 452.28 1441.26C452.66 1442.72 452.94 1444.21 453.13 1445.71C453.32 1447.21 453.41 1448.72 453.41 1450.24C453.41 1469.73 438.58 1483.35 417.33 1483.35C411.24 1483.46 405.21 1482.02 399.83 1479.17ZM399.83 1430.71L399.83 1469.78C400.13 1469.82 400.42 1469.85 400.71 1469.88C401.01 1469.91 401.3 1469.94 401.59 1469.96C401.89 1469.99 402.18 1470 402.48 1470.02C402.77 1470.03 403.07 1470.04 403.36 1470.05C413.89 1470.05 426.47 1466.41 426.47 1449.08C426.47 1435.44 415.56 1430.59 405.35 1430.59C403.52 1430.59 401.62 1430.59 399.83 1430.71ZM235.58 1469.63C235.69 1473.64 235.37 1477.66 234.62 1481.61C233.88 1485.56 232.71 1489.41 231.14 1493.11C229.57 1496.81 227.6 1500.33 225.28 1503.61C222.96 1506.89 220.29 1509.91 217.32 1512.62C214.2 1515.31 210.84 1517.71 207.27 1519.77C203.7 1521.82 199.94 1523.54 196.05 1524.88C192.15 1526.23 188.14 1527.2 184.06 1527.79C179.98 1528.37 175.86 1528.57 171.74 1528.37C167.62 1528.58 163.49 1528.39 159.41 1527.81C155.33 1527.23 151.31 1526.26 147.41 1524.91C143.51 1523.57 139.75 1521.85 136.18 1519.79C132.61 1517.72 129.25 1515.32 126.14 1512.62C123.17 1509.91 120.5 1506.89 118.17 1503.61C115.85 1500.33 113.89 1496.81 112.32 1493.11C110.74 1489.41 109.58 1485.56 108.83 1481.61C108.08 1477.66 107.77 1473.64 107.88 1469.63C107.76 1465.62 108.07 1461.62 108.81 1457.68C109.55 1453.74 110.72 1449.9 112.29 1446.21C113.86 1442.53 115.83 1439.02 118.16 1435.76C120.49 1432.5 123.16 1429.5 126.14 1426.82C129.23 1424.08 132.59 1421.66 136.15 1419.57C139.72 1417.49 143.47 1415.75 147.37 1414.39C151.27 1413.02 155.29 1412.04 159.38 1411.45C163.47 1410.86 167.6 1410.67 171.73 1410.88C175.85 1410.68 179.98 1410.88 184.07 1411.47C188.16 1412.07 192.18 1413.05 196.07 1414.41C199.97 1415.77 203.73 1417.51 207.29 1419.59C210.86 1421.67 214.22 1424.09 217.32 1426.82C220.3 1429.5 222.97 1432.5 225.3 1435.76C227.63 1439.02 229.6 1442.53 231.18 1446.21C232.75 1449.9 233.92 1453.75 234.66 1457.69C235.4 1461.63 235.71 1465.63 235.59 1469.64L235.58 1469.63ZM205.85 1469.79C205.85 1450.52 195.3 1431.09 171.73 1431.09C148.29 1431.09 137.62 1451.16 137.62 1469.79C137.62 1493.3 151 1508.5 171.73 1508.5C192.45 1508.5 205.85 1493.3 205.85 1469.79ZM1371.92 1427.27C1375.14 1429.75 1378.05 1432.6 1380.59 1435.76C1383.14 1438.93 1385.31 1442.38 1387.05 1446.04C1388.79 1449.71 1390.09 1453.57 1390.93 1457.54C1391.77 1461.51 1392.14 1465.57 1392.03 1469.63C1392.15 1473.67 1391.79 1477.72 1390.95 1481.69C1390.12 1485.65 1388.81 1489.5 1387.07 1493.16C1385.33 1496.81 1383.15 1500.25 1380.6 1503.4C1378.05 1506.54 1375.13 1509.37 1371.91 1511.83C1368.13 1514.46 1364.15 1516.77 1359.99 1518.74C1355.83 1520.7 1351.51 1522.32 1347.09 1523.57C1342.66 1524.83 1338.14 1525.71 1333.56 1526.21C1328.99 1526.71 1324.38 1526.83 1319.79 1526.57C1309.7 1526.72 1299.61 1526.07 1289.62 1524.58L1289.14 1524.51L1289.14 1414.58L1289.64 1414.5C1292.13 1414.15 1294.63 1413.85 1297.14 1413.59C1299.65 1413.34 1302.16 1413.13 1304.68 1412.96C1307.19 1412.8 1309.71 1412.68 1312.23 1412.61C1314.75 1412.54 1317.27 1412.51 1319.79 1412.53C1324.38 1412.27 1328.99 1412.39 1333.57 1412.89C1338.14 1413.39 1342.67 1414.27 1347.09 1415.52C1351.52 1416.77 1355.84 1418.39 1360 1420.36C1364.16 1422.33 1368.15 1424.64 1371.92 1427.27ZM1322.59 1507.85C1349.09 1507.85 1363.11 1494.7 1363.11 1469.79C1363.11 1444.69 1349.11 1431.42 1322.59 1431.42C1320.17 1431.42 1317.83 1431.56 1315.59 1431.69L1315.59 1507.59C1316.17 1507.64 1316.75 1507.69 1317.34 1507.73C1317.92 1507.77 1318.5 1507.8 1319.09 1507.82C1319.67 1507.85 1320.25 1507.86 1320.84 1507.87C1321.42 1507.87 1322.01 1507.87 1322.59 1507.86L1322.59 1507.85ZM629 1526.57C618.92 1526.72 608.83 1526.07 598.85 1524.58L598.36 1524.51L598.36 1414.58L598.85 1414.5C601.35 1414.15 603.85 1413.85 606.36 1413.59C608.87 1413.34 611.38 1413.13 613.9 1412.96C616.41 1412.8 618.93 1412.68 621.45 1412.61C623.97 1412.54 626.49 1412.51 629.02 1412.53C633.61 1412.27 638.22 1412.39 642.79 1412.89C647.37 1413.39 651.89 1414.27 656.32 1415.52C660.75 1416.77 665.07 1418.39 669.23 1420.36C673.39 1422.33 677.38 1424.64 681.15 1427.27C684.36 1429.75 687.27 1432.6 689.82 1435.76C692.37 1438.93 694.53 1442.38 696.27 1446.04C698.01 1449.71 699.32 1453.57 700.16 1457.54C701 1461.51 701.37 1465.57 701.26 1469.63C701.38 1473.67 701.02 1477.72 700.18 1481.69C699.34 1485.65 698.04 1489.5 696.3 1493.16C694.55 1496.82 692.38 1500.25 689.83 1503.4C687.28 1506.54 684.36 1509.37 681.14 1511.83C677.36 1514.46 673.37 1516.77 669.21 1518.74C665.06 1520.7 660.74 1522.32 656.31 1523.57C651.89 1524.83 647.36 1525.71 642.79 1526.21C638.22 1526.71 633.61 1526.83 629.02 1526.57L629 1526.57ZM624.82 1507.59C625.4 1507.64 625.98 1507.69 626.56 1507.73C627.14 1507.76 627.72 1507.79 628.31 1507.81C628.89 1507.84 629.47 1507.85 630.05 1507.85C630.64 1507.86 631.22 1507.86 631.8 1507.85C658.32 1507.85 672.33 1494.7 672.33 1469.79C672.33 1444.68 658.33 1431.41 631.82 1431.41C629.39 1431.41 627.06 1431.56 624.82 1431.71L624.82 1507.59ZM466.06 1525.25L466.06 1414L531.47 1414L531.47 1433.69L530.77 1433.54C528.54 1433.1 526.3 1432.73 524.04 1432.42C521.79 1432.11 519.53 1431.86 517.26 1431.69C514.99 1431.51 512.72 1431.4 510.44 1431.35C508.17 1431.31 505.89 1431.33 503.62 1431.42C499.94 1431.42 496.12 1431.42 492.52 1431.56L492.52 1457.23L526.86 1457.23L526.86 1474.81L492.52 1474.81L492.52 1507.39C496.92 1507.69 501.38 1507.85 505.76 1507.85C518.27 1508 530.76 1506.57 542.92 1503.6L544.03 1503.3L535.08 1525.25L466.06 1525.25ZM638.53 829.97L912.85 829.97C901.89 957.21 884.15 1064.89 859.92 1149.69C814.79 1200.82 769.58 1226.02 733.98 1217.75C693.86 1208.44 659.95 1152.99 643.29 1069.42C629.41 999.89 627.97 917.43 638.53 829.98L638.53 829.97Z" />
	<g id="Dossier 1">
		<path id="Layer" fill-rule="evenodd" class="shp0" d="M1029.67 30.61C1029.67 30.61 1076.37 12.24 1159.8 0C1160.57 0 1530.29 1006.38 826.83 1314.79C826.83 1314.79 1248.6 941.33 1029.67 30.61ZM860.51 1160.97C815.35 1213.01 769.42 1238.26 733.44 1229.85C692.87 1220.66 658.43 1164.03 641.59 1079.85C621.68 978.83 627.04 851.02 657.66 720.15C714.3 479.85 836.01 312.24 923.28 296.17C927.1 377.3 928.63 465.31 927.1 551.02C924.04 809.69 901.84 1017.09 860.51 1160.97ZM559.68 690.31C557.39 629.85 555.85 564.8 555.09 493.62C554.32 391.84 562.74 215.82 562.74 215.82C562.74 215.82 683.69 136.22 904.14 69.64C908.73 105.61 913.32 147.7 916.39 193.62C850.56 201.28 782.43 247.19 720.43 328.32C650.77 420.15 593.36 547.96 559.68 690.31ZM516.05 1223.72C553.56 1265.81 592.6 1294.9 630.1 1309.44C604.84 1300.25 506.87 1260.46 412.71 1150.25C349.95 1076.78 302.49 987.24 270.34 884.69C243.55 797.45 229 694.9 227.47 588.52C225.94 506.63 233.6 437.75 233.6 437.75C313.97 364.29 405.82 306.12 405.82 306.12L405.06 318.37C401.23 358.16 397.4 405.61 395.11 456.89C360.66 492.09 338.46 547.19 329.28 617.6C317.03 710.97 330.04 825 365.25 938.26C400.47 1052.29 454.05 1153.31 516.05 1223.72Z" />
		<path id="Layer" fill-rule="evenodd" class="shp1" d="M1029.67 30.61C1029.67 30.61 1076.37 12.24 1159.8 0C1160.57 0 1530.29 1006.38 826.83 1314.79C826.83 1314.79 1248.6 941.33 1029.67 30.61ZM860.51 1160.97C815.35 1213.01 769.42 1238.26 733.44 1229.85C692.87 1220.66 658.43 1164.03 641.59 1079.85C621.68 978.83 627.04 851.02 657.66 720.15C714.3 479.85 836.01 312.24 923.28 296.17C927.1 377.3 928.63 465.31 927.1 551.02C924.04 809.69 901.84 1017.09 860.51 1160.97ZM559.68 690.31C557.39 629.85 555.85 564.8 555.09 493.62C554.32 391.84 562.74 215.82 562.74 215.82C562.74 215.82 683.69 136.22 904.14 69.64C908.73 105.61 913.32 147.7 916.39 193.62C850.56 201.28 782.43 247.19 720.43 328.32C650.77 420.15 593.36 547.96 559.68 690.31ZM516.05 1223.72C553.56 1265.81 592.6 1294.9 630.1 1309.44C604.84 1300.25 506.87 1260.46 412.71 1150.25C349.95 1076.78 302.49 987.24 270.34 884.69C243.55 797.45 229 694.9 227.47 588.52C225.94 506.63 233.6 437.75 233.6 437.75C313.97 364.29 405.82 306.12 405.82 306.12L405.06 318.37C401.23 358.16 397.4 405.61 395.11 456.89C360.66 492.09 338.46 547.19 329.28 617.6C317.03 710.97 330.04 825 365.25 938.26C400.47 1052.29 454.05 1153.31 516.05 1223.72Z" />
		<path id="Layer" class="shp2" d="M516.05 1223.72C454.05 1153.31 400.47 1052.29 365.25 938.26C330.04 825 317.03 710.97 329.28 617.6C338.46 547.19 360.66 492.09 395.11 456.89C397.4 405.61 401.23 358.16 405.06 318.37L405.82 306.12C405.82 306.12 313.97 364.29 233.6 437.75C233.6 437.75 225.94 506.63 227.47 588.52C229 694.9 243.55 797.45 270.34 884.69C302.49 987.24 349.95 1076.78 412.71 1150.25C506.87 1260.46 604.84 1300.25 630.1 1309.44C592.6 1294.9 553.56 1265.81 516.05 1223.72Z" />
		<path id="Layer" class="shp3" d="M780.9 1276.53C654.6 1261.22 635.46 1126.53 628.57 1041.58C620.15 937.5 636.99 779.08 671.44 668.11C690.58 600 715.07 538.77 742.63 486.73C770.18 430.87 806.93 370.41 856.68 310.71C926.34 227.3 1022.79 231.89 1078.66 293.88C1077.13 283.93 1076.37 273.98 1074.84 264.03C1047.28 228.83 1012.83 205.87 973.8 196.68C890.36 177.55 800.8 224.23 721.19 328.32C649.24 421.68 591.83 552.55 558.15 697.19C524.47 841.84 518.35 984.95 541.31 1099.74C567.34 1228.31 627.04 1310.2 710.48 1329.33C720.43 1331.63 731.15 1333.16 741.1 1333.16C770.18 1333.16 797.74 1326.27 827.59 1314.03C828.36 1313.26 849.03 1294.9 878.88 1256.63C847.5 1272.7 814.58 1281.12 780.9 1276.53L780.9 1276.53Z" />
		<path id="Layer" class="shp4" d="M493.09 455.36C467.06 474.49 437.97 515.05 428.79 586.22C419.6 655.87 425.73 739.28 444.86 826.53C430.32 755.36 425.73 688.01 433.38 630.61C441.04 569.39 462.47 525.76 488.49 517.35C491.56 516.58 495.38 515.82 499.98 515.82C516.05 515.82 535.19 524.23 556.62 540.31L556.62 447.7C532.13 441.58 509.93 443.11 493.09 455.36L493.09 455.36Z" />
		<path id="Layer" class="shp5" d="M428.79 586.99C437.97 515.82 467.06 474.49 493.09 456.12C510.69 443.11 532.89 442.35 556.62 449.23C556.62 440.82 556.62 431.63 557.39 423.21C523.71 410.97 490.03 408.67 457.88 418.62C388.98 440.05 343.06 510.46 330.04 618.37C318.56 711.73 330.81 825 366.02 939.03C401.23 1052.29 454.81 1154.08 516.82 1223.72C555.09 1267.35 594.89 1296.43 634.7 1311.73C640.06 1314.03 645.41 1315.56 651.54 1317.09C652.3 1317.09 653.83 1317.86 654.6 1317.86C686.75 1328.57 715.07 1333.93 741.1 1333.93C731.15 1333.16 721.19 1332.4 711.24 1330.1C627.81 1310.97 568.1 1229.08 542.08 1100.51L537.48 1072.96C510.69 1027.8 486.2 972.7 466.3 907.65C457.88 880.87 450.99 853.32 445.63 827.29C424.96 740.05 419.6 656.63 428.79 586.99Z" />
		<path id="Layer" class="shp6" d="M1078.66 293.88C1022.02 231.89 926.34 227.3 856.68 310.71C806.93 370.41 770.18 430.87 742.63 486.73C803.1 369.64 877.35 297.7 933.23 294.64C939.35 294.64 944.71 294.64 950.83 296.17C991.4 305.36 1025.85 361.99 1042.69 446.17C1062.59 547.19 1057.23 675 1026.61 805.87C1005.95 895.41 976.09 975 941.65 1040.05C916.39 1089.03 888.83 1129.59 861.27 1160.97L859.74 1162.5C859.74 1163.26 858.98 1163.26 858.98 1164.03L858.21 1164.79L855.15 1167.86L854.38 1168.62L853.62 1169.39L852.85 1170.15L852.09 1170.92L850.56 1172.45L849.79 1173.21L848.26 1174.74C847.5 1176.27 845.96 1177.04 845.2 1177.8C841.37 1181.63 836.78 1185.46 832.95 1189.28C796.97 1221.43 762.53 1235.97 734.21 1229.85C693.64 1220.66 659.19 1164.03 642.35 1079.85C622.45 978.83 627.81 851.02 658.43 720.15C662.25 702.55 666.85 684.95 671.44 668.11C636.99 779.08 620.15 937.5 628.57 1041.58C635.46 1126.53 653.83 1260.46 780.9 1276.53C815.35 1281.12 848.26 1272.7 878.88 1256.63C894.19 1236.73 911.79 1211.48 930.93 1180.87L930.93 1180.1C931.7 1179.33 931.7 1178.57 932.46 1177.8C1022.79 1026.27 1133.01 741.58 1078.66 293.88L1078.66 293.88Z" />
	</g>
</svg>